<svg aria-hidden="true" style="position: absolute; width: 0; height: 0; overflow: hidden;" version="1.1" xmlns="http://www.w3.org/2000/svg" xmlns:xlink="http://www.w3.org/1999/xlink">
<defs>
<symbol id="men-medal-green" viewBox="0 0 37 32">
<path fill="#4acc77" style="fill: var(--color1, #4acc77)" d="M32.16 16c0 8.837-7.163 16-16 16s-16-7.163-16-16c0-8.837 7.163-16 16-16s16 7.163 16 16z"></path>
<path fill="#fefefe" style="fill: var(--color2, #fefefe)" d="M15.865 19.806c0-0.148-0.118-0.267-0.263-0.267h-5.949c0.137-2.637 2.29-4.739 4.917-4.739 0.949 0 1.87 0.275 2.664 0.795 0.122 0.080 0.285 0.044 0.364-0.080s0.044-0.29-0.078-0.37c-0.879-0.576-1.899-0.881-2.949-0.881-3.005 0-5.45 2.486-5.45 5.541 0 0.148 0.118 0.267 0.263 0.267h6.219c0.145 0 0.263-0.12 0.263-0.267z"></path>
<path fill="#fefefe" style="fill: var(--color2, #fefefe)" d="M14.479 13.769c1.739 0 3.153-1.438 3.153-3.206 0-1.766-1.415-3.203-3.153-3.203-1.737 0-3.151 1.437-3.151 3.203 0 1.768 1.413 3.206 3.151 3.206zM14.479 7.895c1.448 0 2.627 1.197 2.627 2.668 0 1.473-1.178 2.671-2.627 2.671-1.447 0-2.625-1.198-2.625-2.671 0-1.471 1.178-2.668 2.625-2.668z"></path>
<path fill="#fefefe" style="fill: var(--color2, #fefefe)" d="M23.154 22.951l-1.823-2.695c0.348-0.465 0.541-1.027 0.544-1.622 0.011-1.502-1.183-2.733-2.66-2.745-1.472-0.007-2.689 1.204-2.7 2.706-0.004 0.609 0.192 1.172 0.523 1.628l-1.863 2.669c-0.063 0.090-0.065 0.21-0.005 0.302s0.168 0.137 0.275 0.114l1.474-0.32 0.259 1.407c0.020 0.111 0.108 0.198 0.218 0.215 0.014 0.002 0.027 0.003 0.041 0.003 0.096 0 0.185-0.053 0.231-0.14l1.507-2.834 1.467 2.855c0.046 0.089 0.136 0.144 0.233 0.144 0.012 0 0.025-0.001 0.037-0.003 0.11-0.016 0.199-0.101 0.221-0.212l0.279-1.403 1.467 0.341c0.105 0.024 0.216-0.019 0.276-0.11s0.061-0.211-0-0.302zM19.197 16.425c0.005 0 0.009 0 0.014 0 1.188 0.009 2.147 0.999 2.138 2.206-0.004 0.584-0.232 1.132-0.642 1.543-0.406 0.407-0.942 0.63-1.511 0.63-0.005 0-0.011 0-0.016 0-1.187-0.008-2.146-0.997-2.139-2.203 0.009-1.202 0.975-2.175 2.156-2.175zM17.558 23.556l-0.172-0.934c-0.013-0.071-0.054-0.134-0.113-0.173s-0.132-0.054-0.201-0.039l-1.078 0.234 1.404-2.012c0.373 0.343 0.84 0.581 1.359 0.668l-1.2 2.257zM21.266 22.44c-0.070-0.016-0.142-0.003-0.201 0.036s-0.101 0.101-0.115 0.172l-0.185 0.932-1.169-2.274c0.507-0.077 0.979-0.299 1.368-0.648l1.374 2.032-1.072-0.249z"></path>
<path fill="#f65a5a" style="fill: var(--color3, #f65a5a)" d="M32.8 11.52c2.474 0 4.48 2.006 4.48 4.48s-2.006 4.48-4.48 4.48c-2.474 0-4.48-2.006-4.48-4.48s2.006-4.48 4.48-4.48z"></path>
<path fill="#fefefe" style="fill: var(--color2, #fefefe)" d="M34.453 16.709v0.475h-3.288v-0.341l2.038-3.153h0.472l-0.506 0.912-1.347 2.106h2.631zM33.819 13.69v4.55h-0.578v-4.55h0.578z"></path>
</symbol>
<symbol id="document-red" viewBox="0 0 37 32">
<path fill="#f65a5a" style="fill: var(--color3, #f65a5a)" d="M32.16 16c0 8.837-7.163 16-16 16s-16-7.163-16-16c0-8.837 7.163-16 16-16s16 7.163 16 16z"></path>
<path fill="#fefefe" style="fill: var(--color2, #fefefe)" d="M24.495 10.24h-16.67c-0.081 0-0.158 0.033-0.216 0.092s-0.089 0.139-0.089 0.222v10.892c0 0.083 0.032 0.163 0.089 0.222s0.135 0.092 0.216 0.092h16.67c0.081 0 0.158-0.033 0.216-0.092s0.089-0.139 0.089-0.222v-10.892c0-0.083-0.032-0.163-0.089-0.222s-0.135-0.092-0.216-0.092zM24.19 21.132h-16.060v-10.263h16.060v10.263z"></path>
<path fill="#fefefe" style="fill: var(--color2, #fefefe)" d="M9.553 20.084h5.896c0.081 0 0.158-0.033 0.216-0.092s0.089-0.139 0.089-0.222c-0.014-0.875-0.365-1.708-0.975-2.316s-1.429-0.943-2.278-0.93c-0.849-0.013-1.668 0.322-2.278 0.93s-0.96 1.442-0.975 2.316c0 0.083 0.032 0.163 0.089 0.222s0.135 0.092 0.216 0.092zM12.501 17.152c0.634-0.010 1.251 0.219 1.734 0.642s0.8 1.015 0.891 1.662h-5.249c0.091-0.647 0.408-1.238 0.891-1.662s1.099-0.652 1.734-0.642z"></path>
<path fill="#fefefe" style="fill: var(--color2, #fefefe)" d="M12.501 15.895c0.342 0 0.676-0.104 0.96-0.3s0.506-0.474 0.636-0.799c0.131-0.325 0.165-0.683 0.098-1.029s-0.231-0.663-0.473-0.912-0.55-0.419-0.885-0.487c-0.335-0.069-0.683-0.033-0.998 0.101s-0.586 0.363-0.775 0.656c-0.19 0.293-0.291 0.637-0.291 0.989 0.001 0.472 0.183 0.925 0.507 1.258s0.763 0.521 1.221 0.522zM12.501 12.963c0.221 0 0.437 0.068 0.621 0.194s0.327 0.306 0.412 0.517c0.085 0.21 0.107 0.442 0.064 0.666s-0.15 0.429-0.306 0.59c-0.156 0.161-0.356 0.271-0.572 0.315s-0.442 0.022-0.646-0.066c-0.204-0.087-0.379-0.235-0.502-0.424s-0.188-0.412-0.188-0.64c0.001-0.305 0.118-0.598 0.328-0.814s0.494-0.337 0.79-0.338z"></path>
<path fill="#fefefe" style="fill: var(--color2, #fefefe)" d="M16.363 14.22h6.099c0.081 0 0.158-0.033 0.216-0.092s0.089-0.139 0.089-0.222-0.032-0.163-0.089-0.222c-0.057-0.059-0.135-0.092-0.216-0.092h-6.099c-0.081 0-0.158 0.033-0.216 0.092s-0.089 0.139-0.089 0.222 0.032 0.163 0.089 0.222c0.057 0.059 0.135 0.092 0.216 0.092z"></path>
<path fill="#fefefe" style="fill: var(--color2, #fefefe)" d="M16.363 17.152h6.099c0.081 0 0.158-0.033 0.216-0.092s0.089-0.139 0.089-0.222-0.032-0.163-0.089-0.222c-0.057-0.059-0.135-0.092-0.216-0.092h-6.099c-0.081 0-0.158 0.033-0.216 0.092s-0.089 0.139-0.089 0.222 0.032 0.163 0.089 0.222c0.057 0.059 0.135 0.092 0.216 0.092z"></path>
<path fill="#4db8f2" style="fill: var(--color4, #4db8f2)" d="M32.8 11.52c2.474 0 4.48 2.006 4.48 4.48s-2.006 4.48-4.48 4.48c-2.474 0-4.48-2.006-4.48-4.48s2.006-4.48 4.48-4.48z"></path>
<path fill="#fefefe" style="fill: var(--color2, #fefefe)" d="M32.222 15.681h0.412c0.202 0 0.369-0.033 0.5-0.1 0.133-0.069 0.232-0.161 0.297-0.278 0.067-0.119 0.1-0.252 0.1-0.4 0-0.175-0.029-0.322-0.087-0.441s-0.146-0.208-0.263-0.269c-0.116-0.060-0.264-0.091-0.444-0.091-0.163 0-0.306 0.032-0.431 0.097-0.123 0.063-0.22 0.152-0.291 0.269-0.069 0.117-0.103 0.254-0.103 0.412h-0.578c0-0.231 0.058-0.442 0.175-0.631s0.28-0.341 0.491-0.453c0.212-0.113 0.458-0.169 0.738-0.169 0.275 0 0.516 0.049 0.722 0.147 0.206 0.096 0.366 0.24 0.481 0.431 0.115 0.19 0.172 0.426 0.172 0.709 0 0.115-0.027 0.238-0.081 0.369-0.052 0.129-0.134 0.25-0.247 0.363-0.11 0.113-0.254 0.205-0.431 0.278-0.177 0.071-0.39 0.106-0.638 0.106h-0.494v-0.35zM32.222 16.156v-0.347h0.494c0.29 0 0.529 0.034 0.719 0.103s0.339 0.16 0.447 0.275c0.11 0.115 0.188 0.241 0.231 0.378 0.046 0.135 0.068 0.271 0.068 0.406 0 0.212-0.036 0.401-0.109 0.566-0.071 0.165-0.172 0.304-0.303 0.419-0.129 0.115-0.281 0.201-0.456 0.259s-0.366 0.087-0.572 0.087c-0.198 0-0.384-0.028-0.559-0.084-0.173-0.056-0.326-0.137-0.459-0.244-0.133-0.108-0.238-0.241-0.313-0.397-0.075-0.158-0.113-0.339-0.113-0.541h0.578c0 0.158 0.034 0.297 0.103 0.416 0.071 0.119 0.171 0.211 0.3 0.278 0.131 0.065 0.285 0.097 0.462 0.097s0.329-0.030 0.456-0.091c0.129-0.063 0.228-0.156 0.297-0.281 0.071-0.125 0.106-0.282 0.106-0.472s-0.040-0.345-0.119-0.466c-0.079-0.123-0.192-0.214-0.338-0.272-0.144-0.060-0.314-0.091-0.509-0.091h-0.412z"></path>
</symbol>
<symbol id="computer-blue" viewBox="0 0 37 32">
<path fill="#27a6eb" style="fill: var(--color5, #27a6eb)" d="M32.16 16c0 8.837-7.163 16-16 16s-16-7.163-16-16c0-8.837 7.163-16 16-16s16 7.163 16 16z"></path>
<path fill="#fefefe" style="fill: var(--color2, #fefefe)" d="M10.818 10.441l2.029 0.896c-0.402 0.597-0.612 1.282-0.612 2.002 0 1.967 1.591 3.583 3.567 3.583s3.567-1.598 3.567-3.583c0-0.703-0.21-1.405-0.595-1.985l1.784-0.843v3.408l-0.542 1.159c-0.035 0.088-0.035 0.176 0.017 0.246s0.14 0.123 0.227 0.123h1.032c0.087 0 0.175-0.035 0.21-0.123 0.052-0.070 0.052-0.158 0.017-0.246l-0.472-1.159v-3.636c0-0.14-0.017-0.246-0.262-0.351-0.052-0.018-4.861-2.16-4.861-2.16-0.070-0.035-0.14-0.035-0.21 0l-4.896 2.178c-0.087 0.035-0.157 0.14-0.157 0.246s0.052 0.193 0.157 0.246zM18.827 13.339c0 1.686-1.364 3.056-3.043 3.056s-3.043-1.37-3.043-3.056c0-0.65 0.21-1.265 0.577-1.792l2.378 1.071c0.035 0.018 0.070 0.018 0.105 0.018s0.070 0 0.105-0.018l2.343-1.054c0.385 0.527 0.577 1.142 0.577 1.774zM20.663 14.92l0.122-0.263 0.105 0.263h-0.227zM15.819 8.298l4.249 1.897-4.249 1.897-4.249-1.897 4.249-1.897z"></path>
<path fill="#fefefe" style="fill: var(--color2, #fefefe)" d="M15.889 17.555c-3.41 0-6.191 2.793-6.191 6.218 0 0.14 0.122 0.264 0.262 0.264h11.856c0.14 0 0.262-0.123 0.262-0.264 0-3.425-2.78-6.218-6.191-6.218zM10.241 23.509c0.14-3.021 2.623-5.427 5.666-5.427s5.509 2.424 5.648 5.427h-11.314z"></path>
<path fill="#ffdd73" style="fill: var(--color6, #ffdd73)" d="M32.8 11.52c2.474 0 4.48 2.006 4.48 4.48s-2.006 4.48-4.48 4.48c-2.474 0-4.48-2.006-4.48-4.48s2.006-4.48 4.48-4.48z"></path>
<path fill="#4acc77" style="fill: var(--color1, #4acc77)" d="M34.359 17.765v0.475h-2.978v-0.416l1.491-1.659c0.183-0.204 0.325-0.377 0.425-0.519 0.102-0.144 0.173-0.272 0.212-0.384 0.042-0.115 0.062-0.231 0.062-0.35 0-0.15-0.031-0.285-0.094-0.406-0.060-0.123-0.15-0.221-0.269-0.294s-0.262-0.109-0.431-0.109c-0.202 0-0.371 0.040-0.506 0.119-0.133 0.077-0.234 0.185-0.3 0.325s-0.1 0.3-0.1 0.481h-0.578c0-0.256 0.056-0.491 0.169-0.703s0.279-0.381 0.5-0.506c0.221-0.127 0.493-0.191 0.816-0.191 0.287 0 0.533 0.051 0.737 0.153 0.204 0.1 0.361 0.242 0.469 0.425 0.11 0.181 0.166 0.394 0.166 0.637 0 0.133-0.023 0.269-0.069 0.406-0.044 0.135-0.105 0.271-0.184 0.406-0.077 0.135-0.168 0.269-0.272 0.4-0.102 0.131-0.212 0.26-0.328 0.388l-1.219 1.322h2.281z"></path>
</symbol>
<symbol id="Icon-7" viewBox="0 0 37 32">
<path fill="#f4d258" style="fill: var(--color7, #f4d258)" d="M32.16 16c0 8.837-7.163 16-16 16s-16-7.163-16-16c0-8.837 7.163-16 16-16s16 7.163 16 16z"></path>
<path fill="#232c26" style="fill: var(--color8, #232c26)" d="M22.418 9.105h-10.585c-0.632 0-1.139 0.47-1.153 1.077v2.348c0 0.152 0.116 0.275 0.26 0.275s0.26-0.123 0.26-0.275v-2.341c0.007-0.295 0.291-0.534 0.633-0.534h10.585c0.35 0 0.634 0.245 0.634 0.546v8.969c0 0.301-0.284 0.546-0.634 0.546h-10.585c-0.349 0-0.633-0.245-0.633-0.546v-1.284c0-0.152-0.116-0.275-0.26-0.275s-0.26 0.123-0.26 0.275v1.284c0 0.604 0.517 1.096 1.153 1.096h4.993v2.37h-3.299c-0.144 0-0.26 0.123-0.26 0.275s0.116 0.275 0.26 0.275h7.089c0.143 0 0.26-0.123 0.26-0.275s-0.116-0.275-0.26-0.275h-3.27v-2.37h5.073c0.636 0 1.154-0.491 1.154-1.096v-8.969c0-0.604-0.518-1.095-1.154-1.095z"></path>
<path fill="#232c26" style="fill: var(--color8, #232c26)" d="M15.394 13.59h5.571c0.143 0 0.26-0.123 0.26-0.275s-0.116-0.275-0.26-0.275h-5.571c-0.144 0-0.26 0.123-0.26 0.275s0.116 0.275 0.26 0.275z"></path>
<path fill="#232c26" style="fill: var(--color8, #232c26)" d="M15.394 15.331h5.571c0.143 0 0.26-0.123 0.26-0.275s-0.116-0.275-0.26-0.275h-5.571c-0.144 0-0.26 0.123-0.26 0.275s0.116 0.275 0.26 0.275z"></path>
<path fill="#232c26" style="fill: var(--color8, #232c26)" d="M15.394 17.168h5.571c0.143 0 0.26-0.123 0.26-0.275s-0.116-0.275-0.26-0.275h-5.571c-0.144 0-0.26 0.123-0.26 0.275s0.116 0.275 0.26 0.275z"></path>
<path fill="#232c26" style="fill: var(--color8, #232c26)" d="M10.886 15.911c0.067 0 0.134-0.027 0.184-0.080l3.755-3.971c0.102-0.107 0.102-0.281 0-0.389s-0.266-0.107-0.367 0l-3.6 3.807-2.236-1.683c-0.117-0.088-0.279-0.059-0.362 0.064s-0.056 0.295 0.061 0.383l2.415 1.818c0.045 0.034 0.098 0.051 0.15 0.051z"></path>
<path fill="#4acc77" style="fill: var(--color1, #4acc77)" d="M32.8 11.52c2.474 0 4.48 2.006 4.48 4.48s-2.006 4.48-4.48 4.48c-2.474 0-4.48-2.006-4.48-4.48s2.006-4.48 4.48-4.48z"></path>
<path fill="#fefefe" style="fill: var(--color2, #fefefe)" d="M33.278 13.665v4.575h-0.578v-3.853l-1.166 0.425v-0.522l1.653-0.625h0.091z"></path>
</symbol>
<symbol id="men-medal-4" viewBox="0 0 37 32">
<path fill="#00544d" style="fill: var(--color9, #00544d)" d="M32.16 16c0 8.837-7.163 16-16 16s-16-7.163-16-16c0-8.837 7.163-16 16-16s16 7.163 16 16z"></path>
<path fill="#fefefe" style="fill: var(--color2, #fefefe)" d="M15.865 19.806c0-0.148-0.118-0.267-0.263-0.267h-5.949c0.137-2.637 2.29-4.739 4.917-4.739 0.949 0 1.87 0.275 2.664 0.795 0.122 0.080 0.285 0.044 0.364-0.080s0.044-0.29-0.078-0.37c-0.879-0.576-1.899-0.881-2.949-0.881-3.005 0-5.45 2.486-5.45 5.541 0 0.148 0.118 0.267 0.263 0.267h6.219c0.145 0 0.263-0.12 0.263-0.267z"></path>
<path fill="#fefefe" style="fill: var(--color2, #fefefe)" d="M14.479 13.769c1.739 0 3.153-1.438 3.153-3.206 0-1.766-1.415-3.203-3.153-3.203-1.737 0-3.151 1.437-3.151 3.203 0 1.768 1.413 3.206 3.151 3.206zM14.479 7.895c1.448 0 2.627 1.197 2.627 2.668 0 1.473-1.178 2.671-2.627 2.671-1.447 0-2.625-1.198-2.625-2.671 0-1.471 1.178-2.668 2.625-2.668z"></path>
<path fill="#fefefe" style="fill: var(--color2, #fefefe)" d="M23.154 22.951l-1.823-2.695c0.348-0.465 0.541-1.027 0.544-1.622 0.011-1.502-1.183-2.733-2.66-2.745-1.472-0.007-2.689 1.204-2.7 2.706-0.004 0.609 0.192 1.172 0.523 1.628l-1.863 2.669c-0.063 0.090-0.065 0.21-0.005 0.302s0.168 0.137 0.275 0.114l1.474-0.32 0.259 1.407c0.020 0.111 0.108 0.198 0.218 0.215 0.014 0.002 0.027 0.003 0.041 0.003 0.096 0 0.185-0.053 0.231-0.14l1.507-2.834 1.467 2.855c0.046 0.089 0.136 0.144 0.233 0.144 0.012 0 0.025-0.001 0.037-0.003 0.11-0.016 0.199-0.101 0.221-0.212l0.279-1.403 1.467 0.341c0.105 0.024 0.216-0.019 0.276-0.11s0.061-0.211-0-0.302zM19.197 16.425c0.005 0 0.009 0 0.014 0 1.188 0.009 2.147 0.999 2.138 2.206-0.004 0.584-0.232 1.132-0.642 1.543-0.406 0.407-0.942 0.63-1.511 0.63-0.005 0-0.011 0-0.016 0-1.187-0.008-2.146-0.997-2.139-2.203 0.009-1.202 0.975-2.175 2.156-2.175zM17.558 23.556l-0.172-0.934c-0.013-0.071-0.054-0.134-0.113-0.173s-0.132-0.054-0.201-0.039l-1.078 0.234 1.404-2.012c0.373 0.343 0.84 0.581 1.359 0.668l-1.2 2.257zM21.266 22.44c-0.070-0.016-0.142-0.003-0.201 0.036s-0.101 0.101-0.115 0.172l-0.185 0.932-1.169-2.274c0.507-0.077 0.979-0.299 1.368-0.648l1.374 2.032-1.072-0.249z"></path>
<path fill="#ffe288" style="fill: var(--color10, #ffe288)" d="M32.8 11.52c2.474 0 4.48 2.006 4.48 4.48s-2.006 4.48-4.48 4.48c-2.474 0-4.48-2.006-4.48-4.48s2.006-4.48 4.48-4.48z"></path>
<path fill="#232c26" style="fill: var(--color8, #232c26)" d="M34.453 16.709v0.475h-3.288v-0.341l2.038-3.153h0.472l-0.506 0.912-1.347 2.106h2.631zM33.819 13.69v4.55h-0.578v-4.55h0.578z"></path>
</symbol>
<symbol id="handshake" viewBox="0 0 37 32">
<path fill="#00544d" style="fill: var(--color9, #00544d)" d="M32.16 16c0 8.837-7.163 16-16 16s-16-7.163-16-16c0-8.837 7.163-16 16-16s16 7.163 16 16z"></path>
<path fill="#fefefe" style="fill: var(--color2, #fefefe)" d="M24.773 16.149c-0.065-0.136-0.227-0.193-0.36-0.127l-1.906 0.941-1.299 0.572c-0.2-0.053-0.713-0.189-1.173-0.328l-0.226-0.085c-0.033-0.012-0.067-0.018-0.1-0.017-0.16-0.052-0.298-0.102-0.392-0.144-0.448-0.2-1.248-0.672-1.571-0.956-0.364-0.32-1.314-1.509-1.324-1.521-0.081-0.101-0.22-0.131-0.334-0.070-0.261 0.138-1.108 0.503-1.557 0.37-0.237-0.072-0.675-0.316-0.799-0.468-0.083-0.101-0.153-0.466-0.116-0.582 0.097-0.050 0.464 0.013 0.644 0.044 0.308 0.053 0.599 0.103 0.823 0.029 0.438-0.144 1.32-0.91 1.533-1.098 0.211-0.078 1.252-0.435 1.979-0.141 0.383 0.155 0.756 0.208 1.088 0.208 0.719 0 1.249-0.251 1.288-0.27l2.647-1.438c0.131-0.071 0.181-0.237 0.111-0.371s-0.233-0.184-0.365-0.112l-2.635 1.431c-0.009 0.004-0.947 0.441-1.935 0.042-0.861-0.348-1.978-0.002-2.316 0.119-0.376-0.145-1.432-0.529-1.901-0.456-0.438 0.068-1.713 0.129-2.23 0.032-0.218-0.063-1.875-0.974-3.322-1.799-0.13-0.074-0.294-0.027-0.367 0.105s-0.027 0.299 0.103 0.373c0.947 0.54 3.182 1.801 3.479 1.858 0.632 0.119 1.99 0.039 2.418-0.028 0.212-0.033 0.787 0.128 1.29 0.303-0.376 0.313-0.825 0.653-1.030 0.72-0.1 0.033-0.359-0.012-0.568-0.048-0.427-0.073-0.868-0.149-1.127 0.117-0.289 0.301-0.116 1.054 0.094 1.31 0.216 0.266 0.764 0.554 1.062 0.644 0.581 0.171 1.383-0.14 1.759-0.313 0.284 0.35 0.94 1.146 1.254 1.422 0.393 0.346 1.273 0.849 1.707 1.043 0.169 0.076 0.454 0.17 0.759 0.263l1.264 0.479c0.066 0.035 0.116 0.099 0.149 0.192 0.057 0.162 0.046 0.378-0.028 0.537-0.090 0.193-0.292 0.293-0.484 0.265-0.038-0.022-0.080-0.035-0.125-0.037l-1.713-0.903c-0.132-0.070-0.295-0.017-0.363 0.117s-0.017 0.3 0.115 0.369l1.726 0.91c0.005 0.003 0.011 0.004 0.016 0.007 0.013 0.069 0.001 0.118-0.018 0.181-0.013 0.043-0.028 0.093-0.036 0.151-0.113 0.212-0.369 0.307-0.589 0.21l-1.446-0.639c-0.006-0.003-0.013-0.004-0.020-0.006-0.009-0.003-0.017-0.006-0.026-0.008s-0.018-0.003-0.027-0.004c-0.009-0.001-0.017-0.003-0.026-0.003s-0.018 0-0.027 0.001c-0.008 0.001-0.017 0.001-0.025 0.002s-0.018 0.004-0.026 0.006c-0.008 0.002-0.016 0.004-0.024 0.007s-0.016 0.007-0.024 0.011c-0.008 0.004-0.015 0.007-0.023 0.012s-0.014 0.010-0.021 0.015c-0.007 0.005-0.014 0.011-0.021 0.017s-0.012 0.012-0.018 0.019c-0.006 0.007-0.012 0.014-0.018 0.021s-0.009 0.015-0.014 0.023c-0.004 0.006-0.008 0.012-0.011 0.019-0.001 0.002-0.001 0.005-0.003 0.007s-0.002 0.004-0.003 0.006c-0.003 0.006-0.004 0.012-0.006 0.019-0.003 0.009-0.007 0.019-0.009 0.028s-0.003 0.017-0.004 0.026c-0.001 0.009-0.003 0.018-0.003 0.027s0 0.018 0.001 0.026c0.001 0.009 0.001 0.017 0.002 0.026s0.004 0.017 0.006 0.026c0.002 0.008 0.004 0.017 0.007 0.025s0.007 0.016 0.011 0.024c0.004 0.008 0.007 0.016 0.012 0.023s0.010 0.015 0.015 0.022c0.005 0.007 0.010 0.014 0.016 0.021s0.013 0.013 0.020 0.019c0.006 0.006 0.013 0.012 0.020 0.017s0.015 0.010 0.024 0.015c0.006 0.004 0.011 0.008 0.017 0.011l0.386 0.194c0.229 0.11 0.327 0.389 0.218 0.622-0.053 0.114-0.147 0.201-0.264 0.243-0.115 0.042-0.239 0.035-0.349-0.018l-1.084-0.52 0.309-0.533c0.297-0.511 0.13-1.174-0.373-1.477l-0-0c-0.225-0.135-0.478-0.176-0.717-0.135 0.049-0.488-0.17-0.981-0.603-1.242-0-0-0.001-0.001-0.001-0.001-0.431-0.257-0.953-0.221-1.348 0.047-0.079-0.237-0.237-0.449-0.465-0.587-0.507-0.302-1.161-0.132-1.458 0.379l-0.723 1.243-1.768-1.286c-0.006-0.005-0.013-0.008-0.020-0.012s-0.012-0.009-0.019-0.012l-1.912-0.944c-0.134-0.066-0.295-0.009-0.36 0.127s-0.009 0.3 0.125 0.366l1.891 0.934 1.814 1.319c-0.139 0.466 0.047 0.986 0.478 1.245 0.169 0.101 0.355 0.15 0.539 0.15 0.059 0 0.118-0.007 0.176-0.017-0.051 0.492 0.17 0.989 0.608 1.252 0.193 0.116 0.409 0.175 0.629 0.175 0.112 0 0.225-0.015 0.336-0.046 0.137-0.038 0.265-0.099 0.38-0.178 0.079 0.236 0.238 0.446 0.466 0.583 0.169 0.101 0.355 0.149 0.538 0.149 0.364 0 0.719-0.189 0.917-0.529l0.287-0.495 1.128 0.542c0.135 0.065 0.28 0.098 0.426 0.098 0.113 0 0.226-0.020 0.336-0.060 0.253-0.091 0.455-0.278 0.57-0.525 0.079-0.171 0.107-0.352 0.090-0.528l0.278 0.123c0.128 0.056 0.261 0.082 0.392 0.082 0.387 0 0.758-0.23 0.922-0.613 0.015-0.035 0.022-0.070 0.022-0.108 0.001-0.010 0.010-0.040 0.017-0.062 0.020-0.065 0.046-0.152 0.050-0.264 0.323-0.046 0.619-0.251 0.77-0.573 0.135-0.291 0.154-0.658 0.049-0.957-0.036-0.102-0.086-0.189-0.146-0.267l1.092-0.481c0.002-0.001 0.004-0.002 0.006-0.003s0.003-0.001 0.005-0.002l1.912-0.944c0.134-0.067 0.19-0.23 0.125-0.366zM12.128 19.54c-0.25-0.15-0.334-0.477-0.188-0.729l0.872-1.5c0.097-0.167 0.273-0.26 0.452-0.26 0.091 0 0.183 0.024 0.267 0.074 0.248 0.15 0.331 0.477 0.185 0.728l-0.872 1.5c-0.147 0.252-0.469 0.336-0.717 0.187zM14 20.997c-0.19 0.053-0.385 0.027-0.55-0.072-0.345-0.208-0.455-0.674-0.245-1.038l1.129-1.94c0.142-0.245 0.394-0.382 0.65-0.382 0.124 0 0.248 0.032 0.361 0.099 0.343 0.208 0.451 0.672 0.24 1.035l-1.128 1.94c-0.103 0.178-0.265 0.305-0.457 0.358zM15.98 21.272c-0.147 0.252-0.469 0.335-0.717 0.187-0.25-0.15-0.334-0.478-0.187-0.73l0.871-1.5c0.098-0.167 0.272-0.26 0.452-0.26 0.091 0 0.184 0.024 0.268 0.075 0.248 0.15 0.33 0.476 0.184 0.727l-0.366 0.631c-0.076 0.019-0.143 0.070-0.179 0.148-0.028 0.061-0.031 0.127-0.015 0.188l-0.311 0.535z"></path>
<path fill="#ffe288" style="fill: var(--color10, #ffe288)" d="M32.8 11.52c2.474 0 4.48 2.006 4.48 4.48s-2.006 4.48-4.48 4.48c-2.474 0-4.48-2.006-4.48-4.48s2.006-4.48 4.48-4.48z"></path>
<path fill="#232c26" style="fill: var(--color8, #232c26)" d="M32.222 15.681h0.412c0.202 0 0.369-0.033 0.5-0.1 0.133-0.069 0.232-0.161 0.297-0.278 0.067-0.119 0.1-0.252 0.1-0.4 0-0.175-0.029-0.322-0.087-0.441s-0.146-0.208-0.263-0.269c-0.116-0.060-0.264-0.091-0.444-0.091-0.163 0-0.306 0.032-0.431 0.097-0.123 0.063-0.22 0.152-0.291 0.269-0.069 0.117-0.103 0.254-0.103 0.412h-0.578c0-0.231 0.058-0.442 0.175-0.631s0.28-0.341 0.491-0.453c0.212-0.113 0.458-0.169 0.738-0.169 0.275 0 0.516 0.049 0.722 0.147 0.206 0.096 0.366 0.24 0.481 0.431 0.115 0.19 0.172 0.426 0.172 0.709 0 0.115-0.027 0.238-0.081 0.369-0.052 0.129-0.134 0.25-0.247 0.363-0.11 0.113-0.254 0.205-0.431 0.278-0.177 0.071-0.39 0.106-0.638 0.106h-0.494v-0.35zM32.222 16.156v-0.347h0.494c0.29 0 0.529 0.034 0.719 0.103s0.339 0.16 0.447 0.275c0.11 0.115 0.188 0.241 0.231 0.378 0.046 0.135 0.068 0.271 0.068 0.406 0 0.212-0.036 0.401-0.109 0.566-0.071 0.165-0.172 0.304-0.303 0.419-0.129 0.115-0.281 0.201-0.456 0.259s-0.366 0.087-0.572 0.087c-0.198 0-0.384-0.028-0.559-0.084-0.173-0.056-0.326-0.137-0.459-0.244-0.133-0.108-0.238-0.241-0.313-0.397-0.075-0.158-0.113-0.339-0.113-0.541h0.578c0 0.158 0.034 0.297 0.103 0.416 0.071 0.119 0.171 0.211 0.3 0.278 0.131 0.065 0.285 0.097 0.462 0.097s0.329-0.030 0.456-0.091c0.129-0.063 0.228-0.156 0.297-0.281 0.071-0.125 0.106-0.282 0.106-0.472s-0.040-0.345-0.119-0.466c-0.079-0.123-0.192-0.214-0.338-0.272-0.144-0.060-0.314-0.091-0.509-0.091h-0.412z"></path>
</symbol>
<symbol id="men-message" viewBox="0 0 37 32">
<path fill="#00544d" style="fill: var(--color9, #00544d)" d="M32.16 16c0 8.837-7.163 16-16 16s-16-7.163-16-16c0-8.837 7.163-16 16-16s16 7.163 16 16z"></path>
<path fill="#fefefe" style="fill: var(--color2, #fefefe)" d="M14.037 15.066c0.715 0 1.401 0.156 2.040 0.465 0.13 0.062 0.286 0.008 0.348-0.122s0.008-0.287-0.122-0.349c-0.71-0.343-1.473-0.517-2.266-0.517-2.888 0-5.237 2.358-5.237 5.257 0 0.144 0.117 0.262 0.261 0.262h4.521c0.144 0 0.261-0.117 0.261-0.262s-0.117-0.262-0.261-0.262h-4.253c0.136-2.489 2.196-4.472 4.708-4.472z"></path>
<path fill="#fefefe" style="fill: var(--color2, #fefefe)" d="M13.95 14.088c1.672 0 3.033-1.366 3.033-3.044s-1.361-3.044-3.033-3.044c-1.672 0-3.032 1.365-3.032 3.044s1.36 3.044 3.032 3.044zM13.95 8.523c1.385 0 2.511 1.131 2.511 2.52s-1.126 2.521-2.511 2.521c-1.384 0-2.51-1.131-2.51-2.521s1.126-2.52 2.51-2.52z"></path>
<path fill="#fefefe" style="fill: var(--color2, #fefefe)" d="M22.507 16.571h-6.207c-0.493 0-0.894 0.403-0.894 0.898v3.788c0 0.495 0.401 0.898 0.894 0.898h0.67v1.512c0 0.104 0.061 0.198 0.156 0.239 0.034 0.015 0.070 0.022 0.105 0.022 0.064 0 0.127-0.024 0.176-0.069l1.86-1.705h3.241c0.493 0 0.894-0.403 0.894-0.898v-3.788c0-0.495-0.401-0.898-0.894-0.898zM22.88 21.257c0 0.206-0.167 0.374-0.373 0.374h-3.342c-0.065 0-0.128 0.024-0.176 0.069l-1.498 1.373v-1.18c0-0.144-0.117-0.262-0.261-0.262h-0.931c-0.206 0-0.373-0.168-0.373-0.374v-3.788c0-0.206 0.167-0.374 0.373-0.374h6.207c0.206 0 0.373 0.168 0.373 0.374v3.788z"></path>
<path fill="#fefefe" style="fill: var(--color2, #fefefe)" d="M17.84 18.858c-0.192 0-0.348 0.156-0.348 0.349s0.156 0.349 0.348 0.349c0.192 0 0.348-0.156 0.348-0.349s-0.156-0.349-0.348-0.349z"></path>
<path fill="#fefefe" style="fill: var(--color2, #fefefe)" d="M19.578 18.858c-0.192 0-0.348 0.156-0.348 0.349s0.156 0.349 0.348 0.349c0.192 0 0.348-0.156 0.348-0.349s-0.156-0.349-0.348-0.349z"></path>
<path fill="#fefefe" style="fill: var(--color2, #fefefe)" d="M21.142 18.858c-0.192 0-0.348 0.156-0.348 0.349s0.156 0.349 0.348 0.349c0.192 0 0.348-0.156 0.348-0.349s-0.156-0.349-0.348-0.349z"></path>
<path fill="#ffe288" style="fill: var(--color10, #ffe288)" d="M32.8 11.52c2.474 0 4.48 2.006 4.48 4.48s-2.006 4.48-4.48 4.48c-2.474 0-4.48-2.006-4.48-4.48s2.006-4.48 4.48-4.48z"></path>
<path fill="#232c26" style="fill: var(--color8, #232c26)" d="M34.359 17.765v0.475h-2.978v-0.416l1.491-1.659c0.183-0.204 0.325-0.377 0.425-0.519 0.102-0.144 0.173-0.272 0.212-0.384 0.042-0.115 0.062-0.231 0.062-0.35 0-0.15-0.031-0.285-0.094-0.406-0.060-0.123-0.15-0.221-0.269-0.294s-0.262-0.109-0.431-0.109c-0.202 0-0.371 0.040-0.506 0.119-0.133 0.077-0.234 0.185-0.3 0.325s-0.1 0.3-0.1 0.481h-0.578c0-0.256 0.056-0.491 0.169-0.703s0.279-0.381 0.5-0.506c0.221-0.127 0.493-0.191 0.816-0.191 0.287 0 0.533 0.051 0.737 0.153 0.204 0.1 0.361 0.242 0.469 0.425 0.11 0.181 0.166 0.394 0.166 0.637 0 0.133-0.023 0.269-0.069 0.406-0.044 0.135-0.105 0.271-0.184 0.406-0.077 0.135-0.168 0.269-0.272 0.4-0.102 0.131-0.212 0.26-0.328 0.388l-1.219 1.322h2.281z"></path>
</symbol>
<symbol id="copyright" viewBox="0 0 30 32">
<path d="M15.238 0.762c-3.014 0-5.96 0.894-8.466 2.568s-4.459 4.054-5.612 6.839c-1.153 2.784-1.455 5.848-0.867 8.804s2.039 5.671 4.17 7.802c2.131 2.131 4.846 3.582 7.802 4.17s6.020 0.286 8.804-0.867c2.784-1.153 5.164-3.106 6.839-5.612s2.568-5.452 2.568-8.466c-0.004-4.040-1.611-7.913-4.468-10.77s-6.73-4.464-10.77-4.468zM15.238 30.019c-2.773 0-5.483-0.822-7.789-2.363s-4.102-3.73-5.163-6.291c-1.061-2.562-1.339-5.38-0.798-8.1s1.876-5.217 3.837-7.178c1.961-1.961 4.459-3.296 7.178-3.837s5.538-0.263 8.1 0.798c2.562 1.061 4.751 2.858 6.291 5.163s2.363 5.016 2.363 7.789c-0.004 3.717-1.482 7.28-4.11 9.909s-6.192 4.106-9.909 4.11zM20.602 20.024c-0.845 1.125-2.022 1.957-3.365 2.376s-2.784 0.405-4.119-0.040-2.496-1.299-3.318-2.44c-0.823-1.142-1.265-2.513-1.265-3.92s0.443-2.778 1.265-3.92c0.823-1.142 1.984-1.995 3.318-2.44s2.776-0.459 4.119-0.040c1.343 0.419 2.52 1.25 3.365 2.376 0.048 0.064 0.083 0.137 0.103 0.214s0.024 0.158 0.013 0.238c-0.011 0.079-0.038 0.156-0.079 0.225s-0.095 0.129-0.159 0.177-0.137 0.083-0.215 0.103c-0.078 0.020-0.158 0.024-0.238 0.013s-0.156-0.038-0.225-0.079-0.129-0.095-0.177-0.159c-0.691-0.921-1.654-1.601-2.753-1.945s-2.278-0.332-3.37 0.032c-1.092 0.364-2.042 1.063-2.716 1.997s-1.035 2.056-1.035 3.208c0 1.151 0.362 2.274 1.035 3.208s1.623 1.632 2.716 1.997c1.092 0.364 2.271 0.375 3.37 0.032s2.062-1.024 2.753-1.945c0.097-0.129 0.242-0.215 0.402-0.237s0.323 0.019 0.452 0.116c0.129 0.097 0.215 0.242 0.237 0.402s-0.019 0.323-0.116 0.452z"></path>
</symbol>
<symbol id="document" viewBox="0 0 37 32">
<path fill="#00544d" style="fill: var(--color9, #00544d)" d="M32.16 16c0 8.837-7.163 16-16 16s-16-7.163-16-16c0-8.837 7.163-16 16-16s16 7.163 16 16z"></path>
<path fill="#fefefe" style="fill: var(--color2, #fefefe)" d="M24.495 10.24h-16.67c-0.081 0-0.158 0.033-0.216 0.092s-0.089 0.139-0.089 0.222v10.892c0 0.083 0.032 0.163 0.089 0.222s0.135 0.092 0.216 0.092h16.67c0.081 0 0.158-0.033 0.216-0.092s0.089-0.139 0.089-0.222v-10.892c0-0.083-0.032-0.163-0.089-0.222s-0.135-0.092-0.216-0.092zM24.19 21.132h-16.060v-10.263h16.060v10.263z"></path>
<path fill="#fefefe" style="fill: var(--color2, #fefefe)" d="M9.553 20.084h5.896c0.081 0 0.158-0.033 0.216-0.092s0.089-0.139 0.089-0.222c-0.014-0.875-0.365-1.708-0.975-2.316s-1.429-0.943-2.278-0.93c-0.849-0.013-1.668 0.322-2.278 0.93s-0.96 1.442-0.975 2.316c0 0.083 0.032 0.163 0.089 0.222s0.135 0.092 0.216 0.092zM12.501 17.152c0.634-0.010 1.251 0.219 1.734 0.642s0.8 1.015 0.891 1.662h-5.249c0.091-0.647 0.408-1.238 0.891-1.662s1.099-0.652 1.734-0.642z"></path>
<path fill="#fefefe" style="fill: var(--color2, #fefefe)" d="M12.501 15.895c0.342 0 0.676-0.104 0.96-0.3s0.506-0.474 0.636-0.799c0.131-0.325 0.165-0.683 0.098-1.029s-0.231-0.663-0.473-0.912-0.55-0.419-0.885-0.487c-0.335-0.069-0.683-0.033-0.998 0.101s-0.586 0.363-0.775 0.656c-0.19 0.293-0.291 0.637-0.291 0.989 0.001 0.472 0.183 0.925 0.507 1.258s0.763 0.521 1.221 0.522zM12.501 12.963c0.221 0 0.437 0.068 0.621 0.194s0.327 0.306 0.412 0.517c0.085 0.21 0.107 0.442 0.064 0.666s-0.15 0.429-0.306 0.59c-0.156 0.161-0.356 0.271-0.572 0.315s-0.442 0.022-0.646-0.066c-0.204-0.087-0.379-0.235-0.502-0.424s-0.188-0.412-0.188-0.64c0.001-0.305 0.118-0.598 0.328-0.814s0.494-0.337 0.79-0.338z"></path>
<path fill="#fefefe" style="fill: var(--color2, #fefefe)" d="M16.363 14.22h6.099c0.081 0 0.158-0.033 0.216-0.092s0.089-0.139 0.089-0.222-0.032-0.163-0.089-0.222c-0.057-0.059-0.135-0.092-0.216-0.092h-6.099c-0.081 0-0.158 0.033-0.216 0.092s-0.089 0.139-0.089 0.222 0.032 0.163 0.089 0.222c0.057 0.059 0.135 0.092 0.216 0.092z"></path>
<path fill="#fefefe" style="fill: var(--color2, #fefefe)" d="M16.363 17.152h6.099c0.081 0 0.158-0.033 0.216-0.092s0.089-0.139 0.089-0.222-0.032-0.163-0.089-0.222c-0.057-0.059-0.135-0.092-0.216-0.092h-6.099c-0.081 0-0.158 0.033-0.216 0.092s-0.089 0.139-0.089 0.222 0.032 0.163 0.089 0.222c0.057 0.059 0.135 0.092 0.216 0.092z"></path>
<path fill="#ffe288" style="fill: var(--color10, #ffe288)" d="M32.8 11.52c2.474 0 4.48 2.006 4.48 4.48s-2.006 4.48-4.48 4.48c-2.474 0-4.48-2.006-4.48-4.48s2.006-4.48 4.48-4.48z"></path>
<path fill="#232c26" style="fill: var(--color8, #232c26)" d="M33.278 13.665v4.575h-0.578v-3.853l-1.166 0.425v-0.522l1.653-0.625h0.091z"></path>
</symbol>
<symbol id="men-medal-3" viewBox="0 0 37 32">
<path fill="#00544d" style="fill: var(--color9, #00544d)" d="M32.16 16c0 8.837-7.163 16-16 16s-16-7.163-16-16c0-8.837 7.163-16 16-16s16 7.163 16 16z"></path>
<path fill="#fefefe" style="fill: var(--color2, #fefefe)" d="M15.865 19.806c0-0.148-0.118-0.267-0.263-0.267h-5.949c0.137-2.637 2.29-4.739 4.917-4.739 0.949 0 1.87 0.275 2.664 0.795 0.122 0.080 0.285 0.044 0.364-0.080s0.044-0.29-0.078-0.37c-0.879-0.576-1.899-0.881-2.949-0.881-3.005 0-5.45 2.486-5.45 5.541 0 0.148 0.118 0.267 0.263 0.267h6.219c0.145 0 0.263-0.12 0.263-0.267z"></path>
<path fill="#fefefe" style="fill: var(--color2, #fefefe)" d="M14.479 13.769c1.739 0 3.153-1.438 3.153-3.206 0-1.766-1.415-3.203-3.153-3.203-1.737 0-3.151 1.437-3.151 3.203 0 1.768 1.413 3.206 3.151 3.206zM14.479 7.895c1.448 0 2.627 1.197 2.627 2.668 0 1.473-1.178 2.671-2.627 2.671-1.447 0-2.625-1.198-2.625-2.671 0-1.471 1.178-2.668 2.625-2.668z"></path>
<path fill="#fefefe" style="fill: var(--color2, #fefefe)" d="M23.154 22.951l-1.823-2.695c0.348-0.465 0.541-1.027 0.544-1.622 0.011-1.502-1.183-2.733-2.66-2.745-1.472-0.007-2.689 1.204-2.7 2.706-0.004 0.609 0.192 1.172 0.523 1.628l-1.863 2.669c-0.063 0.090-0.065 0.21-0.005 0.302s0.168 0.137 0.275 0.114l1.474-0.32 0.259 1.407c0.020 0.111 0.108 0.198 0.218 0.215 0.014 0.002 0.027 0.003 0.041 0.003 0.096 0 0.185-0.053 0.231-0.14l1.507-2.834 1.467 2.855c0.046 0.089 0.136 0.144 0.233 0.144 0.012 0 0.025-0.001 0.037-0.003 0.11-0.016 0.199-0.101 0.221-0.212l0.279-1.403 1.467 0.341c0.105 0.024 0.216-0.019 0.276-0.11s0.061-0.211-0-0.302zM19.197 16.425c0.005 0 0.009 0 0.014 0 1.188 0.009 2.147 0.999 2.138 2.206-0.004 0.584-0.232 1.132-0.642 1.543-0.406 0.407-0.942 0.63-1.511 0.63-0.005 0-0.011 0-0.016 0-1.187-0.008-2.146-0.997-2.139-2.203 0.009-1.202 0.975-2.175 2.156-2.175zM17.558 23.556l-0.172-0.934c-0.013-0.071-0.054-0.134-0.113-0.173s-0.132-0.054-0.201-0.039l-1.078 0.234 1.404-2.012c0.373 0.343 0.84 0.581 1.359 0.668l-1.2 2.257zM21.266 22.44c-0.070-0.016-0.142-0.003-0.201 0.036s-0.101 0.101-0.115 0.172l-0.185 0.932-1.169-2.274c0.507-0.077 0.979-0.299 1.368-0.648l1.374 2.032-1.072-0.249z"></path>
<path fill="#ffe288" style="fill: var(--color10, #ffe288)" d="M32.8 11.52c2.474 0 4.48 2.006 4.48 4.48s-2.006 4.48-4.48 4.48c-2.474 0-4.48-2.006-4.48-4.48s2.006-4.48 4.48-4.48z"></path>
<path fill="#232c26" style="fill: var(--color8, #232c26)" d="M32.222 15.681h0.412c0.202 0 0.369-0.033 0.5-0.1 0.133-0.069 0.232-0.161 0.297-0.278 0.067-0.119 0.1-0.252 0.1-0.4 0-0.175-0.029-0.322-0.087-0.441s-0.146-0.208-0.263-0.269c-0.116-0.060-0.264-0.091-0.444-0.091-0.163 0-0.306 0.032-0.431 0.097-0.123 0.063-0.22 0.152-0.291 0.269-0.069 0.117-0.103 0.254-0.103 0.412h-0.578c0-0.231 0.058-0.442 0.175-0.631s0.28-0.341 0.491-0.453c0.212-0.113 0.458-0.169 0.738-0.169 0.275 0 0.516 0.049 0.722 0.147 0.206 0.096 0.366 0.24 0.481 0.431 0.115 0.19 0.172 0.426 0.172 0.709 0 0.115-0.027 0.238-0.081 0.369-0.052 0.129-0.134 0.25-0.247 0.363-0.11 0.113-0.254 0.205-0.431 0.278-0.177 0.071-0.39 0.106-0.638 0.106h-0.494v-0.35zM32.222 16.156v-0.347h0.494c0.29 0 0.529 0.034 0.719 0.103s0.339 0.16 0.447 0.275c0.11 0.115 0.188 0.241 0.231 0.378 0.046 0.135 0.068 0.271 0.068 0.406 0 0.212-0.036 0.401-0.109 0.566-0.071 0.165-0.172 0.304-0.303 0.419-0.129 0.115-0.281 0.201-0.456 0.259s-0.366 0.087-0.572 0.087c-0.198 0-0.384-0.028-0.559-0.084-0.173-0.056-0.326-0.137-0.459-0.244-0.133-0.108-0.238-0.241-0.313-0.397-0.075-0.158-0.113-0.339-0.113-0.541h0.578c0 0.158 0.034 0.297 0.103 0.416 0.071 0.119 0.171 0.211 0.3 0.278 0.131 0.065 0.285 0.097 0.462 0.097s0.329-0.030 0.456-0.091c0.129-0.063 0.228-0.156 0.297-0.281 0.071-0.125 0.106-0.282 0.106-0.472s-0.040-0.345-0.119-0.466c-0.079-0.123-0.192-0.214-0.338-0.272-0.144-0.060-0.314-0.091-0.509-0.091h-0.412z"></path>
</symbol>
<symbol id="graduate" viewBox="0 0 37 32">
<path fill="#00544d" style="fill: var(--color9, #00544d)" d="M32.16 16c0 8.837-7.163 16-16 16s-16-7.163-16-16c0-8.837 7.163-16 16-16s16 7.163 16 16z"></path>
<path fill="#fefefe" style="fill: var(--color2, #fefefe)" d="M10.818 10.441l2.029 0.896c-0.402 0.597-0.612 1.282-0.612 2.002 0 1.967 1.591 3.583 3.567 3.583s3.567-1.598 3.567-3.583c0-0.703-0.21-1.405-0.595-1.985l1.784-0.843v3.407l-0.542 1.159c-0.035 0.088-0.035 0.176 0.017 0.246s0.14 0.123 0.227 0.123h1.032c0.087 0 0.175-0.035 0.21-0.123 0.052-0.070 0.052-0.158 0.017-0.246l-0.472-1.159v-3.636c0-0.14-0.017-0.246-0.262-0.351-0.052-0.018-4.861-2.16-4.861-2.16-0.070-0.035-0.14-0.035-0.21 0l-4.896 2.178c-0.087 0.035-0.157 0.14-0.157 0.246s0.052 0.193 0.157 0.246zM18.827 13.339c0 1.686-1.364 3.056-3.043 3.056s-3.043-1.37-3.043-3.056c0-0.65 0.21-1.265 0.577-1.792l2.378 1.071c0.035 0.018 0.070 0.018 0.105 0.018s0.070 0 0.105-0.018l2.343-1.054c0.385 0.527 0.577 1.142 0.577 1.774zM20.663 14.92l0.122-0.263 0.105 0.263h-0.227zM15.819 8.298l4.249 1.897-4.249 1.897-4.249-1.897 4.249-1.897z"></path>
<path fill="#fefefe" style="fill: var(--color2, #fefefe)" d="M15.889 17.555c-3.41 0-6.191 2.793-6.191 6.218 0 0.14 0.122 0.263 0.262 0.263h11.856c0.14 0 0.262-0.123 0.262-0.263 0-3.425-2.78-6.218-6.191-6.218zM10.241 23.509c0.14-3.021 2.623-5.427 5.666-5.427s5.509 2.424 5.648 5.427h-11.314z"></path>
<path fill="#ffe288" style="fill: var(--color10, #ffe288)" d="M32.8 11.52c2.474 0 4.48 2.006 4.48 4.48s-2.006 4.48-4.48 4.48c-2.474 0-4.48-2.006-4.48-4.48s2.006-4.48 4.48-4.48z"></path>
<path fill="#232c26" style="fill: var(--color8, #232c26)" d="M34.359 17.765v0.475h-2.978v-0.416l1.491-1.659c0.183-0.204 0.325-0.377 0.425-0.519 0.102-0.144 0.173-0.272 0.212-0.384 0.042-0.115 0.062-0.231 0.062-0.35 0-0.15-0.031-0.285-0.094-0.406-0.060-0.123-0.15-0.221-0.269-0.294s-0.262-0.109-0.431-0.109c-0.202 0-0.371 0.040-0.506 0.119-0.133 0.077-0.234 0.185-0.3 0.325s-0.1 0.3-0.1 0.481h-0.578c0-0.256 0.056-0.491 0.169-0.703s0.279-0.381 0.5-0.506c0.221-0.127 0.493-0.191 0.816-0.191 0.287 0 0.533 0.051 0.737 0.153 0.204 0.1 0.361 0.242 0.469 0.425 0.11 0.181 0.166 0.394 0.166 0.637 0 0.133-0.023 0.269-0.069 0.406-0.044 0.135-0.105 0.271-0.184 0.406-0.077 0.135-0.168 0.269-0.272 0.4-0.102 0.131-0.212 0.26-0.328 0.388l-1.219 1.322h2.281z"></path>
</symbol>
<symbol id="computer" viewBox="0 0 37 32">
<path fill="#00544d" style="fill: var(--color9, #00544d)" d="M32.16 16c0 8.837-7.163 16-16 16s-16-7.163-16-16c0-8.837 7.163-16 16-16s16 7.163 16 16z"></path>
<path fill="#fefefe" style="fill: var(--color2, #fefefe)" d="M22.418 9.105h-10.585c-0.632 0-1.139 0.47-1.153 1.077v2.348c0 0.152 0.116 0.275 0.26 0.275s0.26-0.123 0.26-0.275v-2.341c0.007-0.295 0.291-0.534 0.633-0.534h10.585c0.35 0 0.634 0.245 0.634 0.546v8.969c0 0.301-0.285 0.546-0.634 0.546h-10.585c-0.349 0-0.633-0.245-0.633-0.546v-1.284c0-0.152-0.116-0.275-0.26-0.275s-0.26 0.123-0.26 0.275v1.284c0 0.604 0.517 1.096 1.153 1.096h4.993v2.37h-3.299c-0.144 0-0.26 0.123-0.26 0.275s0.116 0.275 0.26 0.275h7.089c0.143 0 0.26-0.123 0.26-0.275s-0.116-0.275-0.26-0.275h-3.27v-2.37h5.073c0.636 0 1.154-0.491 1.154-1.096v-8.969c0-0.604-0.518-1.095-1.154-1.095z"></path>
<path fill="#fefefe" style="fill: var(--color2, #fefefe)" d="M15.394 13.59h5.571c0.143 0 0.26-0.123 0.26-0.275s-0.116-0.275-0.26-0.275h-5.571c-0.144 0-0.26 0.123-0.26 0.275s0.116 0.275 0.26 0.275z"></path>
<path fill="#fefefe" style="fill: var(--color2, #fefefe)" d="M15.394 15.331h5.571c0.143 0 0.26-0.123 0.26-0.275s-0.116-0.275-0.26-0.275h-5.571c-0.144 0-0.26 0.123-0.26 0.275s0.116 0.275 0.26 0.275z"></path>
<path fill="#fefefe" style="fill: var(--color2, #fefefe)" d="M15.394 17.168h5.571c0.143 0 0.26-0.123 0.26-0.275s-0.116-0.275-0.26-0.275h-5.571c-0.144 0-0.26 0.123-0.26 0.275s0.116 0.275 0.26 0.275z"></path>
<path fill="#fefefe" style="fill: var(--color2, #fefefe)" d="M10.886 15.911c0.067 0 0.134-0.027 0.184-0.080l3.755-3.971c0.102-0.107 0.102-0.281 0-0.389s-0.266-0.107-0.367 0l-3.6 3.807-2.236-1.683c-0.117-0.088-0.279-0.059-0.362 0.065s-0.056 0.295 0.061 0.383l2.415 1.818c0.045 0.034 0.098 0.051 0.15 0.051z"></path>
<path fill="#ffe288" style="fill: var(--color10, #ffe288)" d="M32.8 11.52c2.474 0 4.48 2.006 4.48 4.48s-2.006 4.48-4.48 4.48c-2.474 0-4.48-2.006-4.48-4.48s2.006-4.48 4.48-4.48z"></path>
<path fill="#232c26" style="fill: var(--color8, #232c26)" d="M33.278 13.665v4.575h-0.578v-3.853l-1.166 0.425v-0.522l1.653-0.625h0.091z"></path>
</symbol>
<symbol id="group-people" viewBox="0 0 32 32">
<path fill="#e9a116" style="fill: var(--color11, #e9a116)" d="M24.052 10.739v-0.851c1.062-0.63 1.749-1.797 1.749-3.058v-1.513c0-1.955-1.562-3.531-3.499-3.531s-3.53 1.576-3.53 3.531v1.513c0 1.23 0.625 2.365 1.687 2.995v0.914c-0.469 0.126-0.906 0.315-1.343 0.568-0.687-1.608-2.28-2.743-4.124-2.743-1.812 0-3.343 1.072-4.061 2.648-0.406-0.189-0.812-0.378-1.218-0.473v-0.851c1.062-0.63 1.749-1.797 1.749-3.058v-1.513c0-1.955-1.562-3.531-3.499-3.531s-3.499 1.576-3.499 3.531v1.513c0 1.23 0.625 2.365 1.687 2.995v0.914c-2.812 0.82-4.717 3.373-4.717 6.337 0 0.252 0.219 0.473 0.469 0.473h9.247c0.031 0 0.063 0 0.094 0 0.375 0.599 0.906 1.104 1.531 1.482v1.419c-3.718 1.009-6.248 4.382-6.248 8.292 0 0.252 0.219 0.473 0.469 0.473h16.089c0.25 0 0.469-0.221 0.469-0.473 0-3.878-2.655-7.314-6.342-8.292v-1.356c0.656-0.378 1.187-0.883 1.593-1.513h9.591c0.25 0 0.469-0.221 0.469-0.473-0.031-2.964-2.031-5.58-4.811-6.368zM2.371 16.634c0.187-2.459 1.937-4.477 4.342-5.044 0.219-0.063 0.375-0.252 0.375-0.473v-1.576c0-0.189-0.094-0.347-0.25-0.41-0.875-0.441-1.437-1.324-1.437-2.301v-1.513c0-1.419 1.156-2.585 2.562-2.585s2.562 1.167 2.562 2.585v1.513c0 0.977-0.594 1.892-1.468 2.333-0.156 0.063-0.281 0.252-0.281 0.441v1.513c0 0.221 0.156 0.41 0.375 0.473 0.531 0.126 1.031 0.315 1.499 0.568-0.062 0.315-0.094 0.63-0.094 0.977v2.018c0 0.504 0.094 1.009 0.25 1.482h-8.435zM16.523 18.368c-0.156 0.063-0.281 0.252-0.281 0.441v2.018c0 0.221 0.156 0.41 0.375 0.473 3.311 0.725 5.748 3.626 5.967 6.999h-15.12c0.187-3.373 2.562-6.211 5.873-6.968 0.219-0.063 0.375-0.252 0.375-0.473v-2.081c0-0.189-0.094-0.347-0.25-0.41-1.218-0.599-1.968-1.829-1.968-3.184v-2.018c0-1.986 1.593-3.563 3.53-3.563s3.53 1.608 3.53 3.563v1.986c0 1.356-0.781 2.617-2.031 3.216zM19.241 16.634c0.156-0.473 0.25-0.977 0.25-1.482v-2.018c0-0.284-0.031-0.599-0.094-0.851 0.5-0.315 1.062-0.536 1.624-0.662 0.219-0.063 0.375-0.252 0.375-0.473v-1.576c0-0.189-0.094-0.347-0.25-0.41-0.875-0.441-1.437-1.324-1.437-2.301v-1.513c0-1.419 1.156-2.585 2.562-2.585s2.562 1.167 2.562 2.585v1.513c0 0.977-0.594 1.892-1.468 2.333-0.156 0.063-0.281 0.252-0.281 0.441v1.513c0 0.221 0.156 0.41 0.375 0.473 2.405 0.536 4.186 2.617 4.405 5.044l-8.622-0.032z"></path>
</symbol>
<symbol id="board" viewBox="0 0 32 32">
<path fill="#e9a116" style="fill: var(--color11, #e9a116)" d="M27.983 7.92v-3.845c0-0.252-0.221-0.473-0.473-0.473h-11.547v-2.301c0-0.252-0.221-0.473-0.473-0.473s-0.473 0.221-0.473 0.473v2.301h-11.515c-0.252 0-0.473 0.221-0.473 0.473v3.845c0 0.126 0 0.41 0 0.63v11.314c0 0.252 0.221 0.473 0.473 0.473h7.319l-2.429 10.179c-0.063 0.252 0.095 0.504 0.347 0.567 0.032 0 0.063 0 0.126 0 0.221 0 0.41-0.158 0.473-0.347l2.492-10.4h3.25v7.627c0 0.252 0.221 0.473 0.473 0.473s0.473-0.221 0.473-0.473v-7.627h3.155l2.587 10.4c0.063 0.221 0.252 0.347 0.473 0.347 0.032 0 0.063 0 0.126 0 0.252-0.063 0.41-0.315 0.347-0.567l-2.524-10.179h7.382c0.252 0 0.473-0.221 0.473-0.473 0 0-0.063-11.787-0.063-11.944zM27.037 4.547v3.215h-23.062v-3.215h23.062zM3.974 19.391v-10.684h23.062v10.684h-23.062z"></path>
</symbol>
<symbol id="men" viewBox="0 0 32 32">
<path fill="#e9a116" style="fill: var(--color11, #e9a116)" d="M13.642 13.212c2.946 0 5.354-2.427 5.354-5.397s-2.408-5.365-5.354-5.365-5.354 2.395-5.354 5.365c0 2.97 2.408 5.397 5.354 5.397zM13.642 3.407c2.408 0 4.404 1.98 4.404 4.407s-1.964 4.439-4.404 4.439c-2.44 0-4.404-2.012-4.404-4.439s1.964-4.407 4.404-4.407z"></path>
<path fill="#e9a116" style="fill: var(--color11, #e9a116)" d="M28.058 23.017h-1.426v-7.346c0-0.128-0.032-0.255-0.127-0.319l-1.172-1.277c0.38-0.735 0.19-1.661-0.444-2.204l-1.299-1.118c-0.38-0.319-0.855-0.479-1.331-0.415-0.475 0.032-0.919 0.255-1.236 0.639-0.634 0.767-0.539 1.948 0.222 2.587l1.299 1.118c0.349 0.287 0.76 0.447 1.172 0.447 0.349 0 0.697-0.096 0.982-0.287l0.982 1.054v7.122h-2.693c-0.127-5.014-4.214-9.038-9.188-9.038-5.006 0-9.093 4.024-9.188 9.038h-1.172c-0.253 0-0.475 0.224-0.475 0.479v5.238c0 0.256 0.222 0.479 0.475 0.479h24.649c0.253 0 0.475-0.224 0.475-0.479v-5.238c-0.032-0.256-0.253-0.479-0.507-0.479zM23.147 13.947l-1.299-1.118c-0.38-0.319-0.412-0.862-0.095-1.246 0.158-0.192 0.349-0.287 0.602-0.319 0.032 0 0.063 0 0.063 0 0.19 0 0.412 0.064 0.57 0.224l1.299 1.118c0.38 0.319 0.412 0.862 0.095 1.246-0.317 0.351-0.855 0.415-1.236 0.096zM13.769 14.905c4.467 0 8.143 3.609 8.238 8.080h-16.475c0.127-4.471 3.77-8.080 8.238-8.080zM27.582 28.255h-23.699v-4.28h23.699v4.28z"></path>
</symbol>
<symbol id="logo" viewBox="0 0 18 32">
<path fill="none" stroke="#f3c80b" style="stroke: var(--color12, #f3c80b)" stroke-linejoin="miter" stroke-linecap="round" stroke-miterlimit="4" stroke-width="0.3516" d="M6.218 17.895c0 0 1.135 0.041 1.754 0.598 0.654 0.588 0.928 1.549 0.928 1.818M9.003 25.67c0 0-2.103-1.547-2.802-2.891-0.468-0.9-0.727-1.458-0.805-2.469-0.075-0.972 0.090-1.536 0.376-2.469 0.307-1.004 0.719-1.472 1.181-2.415 0.523-1.069 0.891-1.635 1.342-2.737 0.485-1.184 0.738-1.865 1.020-3.113 0.168-0.746 0.23-1.173 0.322-1.932 0.253-2.080 0.278-4.19 0.081-5.393s-0.611-1.901-0.611-1.901M8.9 20.687h-7.195c-0.376 0-0.671 0-1.020-0.322s-0.295-1.020-0.322-1.717l-0.012-10.222v-5.609c0-0.268 0.075-0.731 0.403-0.912 0.46-0.255 0.912 0.188 1.261 0.59s0.897 1.353 1.288 2.308c0.34 0.828 0.54 1.25 0.751 2.12 0.242 0.995 0.362 1.61 0.456 2.63 0.092 1.002 0.231 1.932-0.080 2.603-0.282 0.606-0.698 0.805-1.127 1.288-0.357 0.401-0.489 0.986-0.489 1.363s0.017 1.128 0.489 1.695c0.472 0.566 1.346 0.927 2.089 1.096"></path>
<path fill="none" stroke="#27a6eb" style="stroke: var(--color5, #27a6eb)" stroke-linejoin="miter" stroke-linecap="round" stroke-miterlimit="4" stroke-width="0.3516" d="M11.81 17.835c0 0-1.473 0.27-1.953 0.697-0.661 0.588-0.663 1.18-0.663 1.663 0 0-0.145 5.379 0 5.471s1.872-1.554 2.579-2.897c0.473-0.899 0.735-1.457 0.814-2.467 0.076-0.972-0.091-1.536-0.38-2.468-0.311-1.003-0.728-1.471-1.194-2.414-0.529-1.069-0.901-1.635-1.357-2.736-0.49-1.183-0.747-1.864-1.032-3.111-0.17-0.746-0.232-1.172-0.326-1.931-0.256-2.079-0.277-4.188-0.081-5.391s0.608-1.9 0.608-1.9M9.545 20.678h6.668c0.38 0 0.679 0 1.032-0.322s0.299-1.019 0.326-1.717l0.012-13.269v-2.555c0-0.268-0.075-0.73-0.407-0.912-0.465-0.255-0.923 0.188-1.276 0.59s-0.907 1.352-1.303 2.307c-0.343 0.828-0.546 1.249-0.76 2.119-0.245 0.994-0.367 1.61-0.461 2.628-0.093 1.001-0.234 1.931 0.081 2.602 0.285 0.606 0.706 0.805 1.14 1.287 0.303 0.336 0.502 0.972 0.508 1.562s-0.101 1.111-0.508 1.594c-0.407 0.483-1.314 0.827-2.065 0.996"></path>
<path fill="#00544d" style="fill: var(--color9, #00544d)" d="M3.366 31.44v0.497h-2.513v-0.497h2.513zM0.981 27.33v4.607h-0.629v-4.607h0.629zM3.034 29.311v0.497h-2.18v-0.497h2.18zM3.334 27.33v0.5h-2.48v-0.5h2.48z"></path>
<path fill="#00544d" style="fill: var(--color9, #00544d)" d="M6.211 31.272v-4.195h0.606v4.86h-0.554l-0.052-0.664zM3.839 30.263v-0.066c0-0.262 0.033-0.499 0.098-0.712 0.067-0.215 0.162-0.4 0.284-0.554 0.124-0.154 0.271-0.272 0.44-0.354 0.172-0.084 0.363-0.127 0.574-0.127 0.222 0 0.415 0.038 0.58 0.114 0.167 0.074 0.309 0.182 0.424 0.326 0.117 0.141 0.21 0.312 0.277 0.513s0.114 0.427 0.14 0.68v0.291c-0.024 0.251-0.071 0.477-0.14 0.677-0.067 0.2-0.16 0.371-0.277 0.513-0.115 0.141-0.256 0.25-0.424 0.326-0.167 0.074-0.363 0.111-0.587 0.111-0.206 0-0.395-0.043-0.567-0.13-0.169-0.086-0.316-0.208-0.44-0.364-0.122-0.156-0.216-0.34-0.284-0.551-0.065-0.213-0.098-0.444-0.098-0.693zM4.445 30.197v0.066c0 0.171 0.017 0.331 0.052 0.481 0.037 0.15 0.093 0.282 0.17 0.395s0.173 0.204 0.29 0.269c0.117 0.063 0.257 0.095 0.42 0.095 0.2 0 0.364-0.041 0.492-0.123 0.13-0.082 0.235-0.191 0.313-0.326s0.139-0.282 0.183-0.44v-0.762c-0.026-0.116-0.064-0.228-0.114-0.335-0.048-0.11-0.111-0.207-0.189-0.291-0.076-0.087-0.171-0.155-0.284-0.206-0.111-0.051-0.242-0.076-0.394-0.076-0.165 0-0.307 0.034-0.427 0.101-0.117 0.065-0.214 0.156-0.29 0.272-0.076 0.114-0.133 0.247-0.17 0.399-0.035 0.15-0.052 0.31-0.052 0.481z"></path>
<path fill="#00544d" style="fill: var(--color9, #00544d)" d="M12.322 27.33h0.626v3.116c0 0.346-0.079 0.634-0.238 0.864s-0.369 0.403-0.632 0.519c-0.261 0.114-0.544 0.171-0.851 0.171-0.322 0-0.613-0.057-0.873-0.171-0.259-0.116-0.464-0.289-0.616-0.519-0.15-0.23-0.225-0.518-0.225-0.864v-3.116h0.623v3.116c0 0.24 0.046 0.439 0.137 0.595s0.218 0.272 0.381 0.348c0.165 0.076 0.356 0.114 0.574 0.114 0.219 0 0.411-0.038 0.574-0.114 0.165-0.076 0.293-0.192 0.385-0.348s0.137-0.354 0.137-0.595v-3.116z"></path>
<path fill="#00544d" style="fill: var(--color9, #00544d)" d="M15.62 27.738l-1.571 4.199h-0.642l1.809-4.607h0.414l-0.010 0.408zM16.937 31.937l-1.574-4.199-0.010-0.408h0.414l1.815 4.607h-0.645zM16.856 30.231v0.5h-2.666v-0.5h2.666z"></path>
</symbol>
<symbol id="linkedin" viewBox="0 0 32 32">
<path fill="#fefefe" style="fill: var(--color2, #fefefe)" d="M24.5 0h-17c-4.142 0-7.5 3.358-7.5 7.5v17c0 4.142 3.358 7.5 7.5 7.5h17c4.142 0 7.5-3.358 7.5-7.5v-17c0-4.142-3.358-7.5-7.5-7.5z"></path>
<path fill="#0a66c2" style="fill: var(--color13, #0a66c2)" d="M24.5 0h-17c-4.142 0-7.5 3.358-7.5 7.5v17c0 4.142 3.358 7.5 7.5 7.5h17c4.142 0 7.5-3.358 7.5-7.5v-17c0-4.142-3.358-7.5-7.5-7.5z"></path>
<path fill="#fefefe" style="fill: var(--color2, #fefefe)" d="M23.089 27.211h3.659c0.133 0 0.26-0.053 0.354-0.146s0.146-0.221 0.146-0.353l0.002-7.73c0-4.040-0.871-7.146-5.592-7.146-1.795-0.067-3.488 0.858-4.401 2.404-0.005 0.008-0.011 0.013-0.019 0.017s-0.017 0.004-0.025 0.002c-0.009-0.002-0.016-0.007-0.021-0.014s-0.008-0.015-0.008-0.024v-1.51c0-0.133-0.053-0.26-0.146-0.354s-0.221-0.146-0.354-0.146h-3.472c-0.133 0-0.26 0.053-0.354 0.146s-0.146 0.221-0.146 0.354v14.002c0 0.133 0.053 0.26 0.146 0.354s0.221 0.146 0.354 0.146h3.659c0.133 0 0.26-0.053 0.354-0.146s0.146-0.221 0.146-0.354v-6.922c0-1.957 0.371-3.852 2.798-3.852 2.392 0 2.423 2.239 2.423 3.979v6.796c0 0.133 0.053 0.26 0.146 0.354s0.221 0.146 0.354 0.146zM4.75 7.454c0 1.483 1.221 2.703 2.704 2.703s2.703-1.221 2.703-2.704c-0-1.483-1.221-2.703-2.703-2.703s-2.704 1.22-2.704 2.704zM5.62 27.211h3.663c0.133 0 0.26-0.053 0.354-0.146s0.146-0.221 0.146-0.354v-14.003c0-0.133-0.053-0.26-0.146-0.354s-0.221-0.146-0.354-0.146h-3.663c-0.133 0-0.26 0.053-0.354 0.146s-0.146 0.221-0.146 0.354v14.003c0 0.133 0.053 0.26 0.146 0.354s0.221 0.146 0.354 0.146z"></path>
</symbol>
<symbol id="facebook" viewBox="0 0 32 32">
<path fill="#1877f2" style="fill: var(--color16, #1877f2)" d="M32 16c0-8.836-7.163-16-16-16s-16 7.163-16 16c0 7.986 5.851 14.605 13.5 15.806v-11.181h-4.063v-4.625h4.063v-3.525c0-4.010 2.389-6.225 6.044-6.225 1.75 0 3.581 0.313 3.581 0.313v3.938h-2.017c-1.988 0-2.608 1.233-2.608 2.499v3.001h4.438l-0.709 4.625h-3.728v11.181c7.649-1.2 13.5-7.819 13.5-15.806z"></path>
<path fill="#fefefe" style="fill: var(--color2, #fefefe)" d="M22.228 20.625l0.709-4.625h-4.438v-3.001c0-1.265 0.62-2.499 2.608-2.499h2.017v-3.938c0 0-1.831-0.313-3.581-0.313-3.655 0-6.043 2.215-6.043 6.225v3.525h-4.063v4.625h4.063v11.181c0.827 0.13 1.663 0.195 2.5 0.194s1.673-0.065 2.5-0.194v-11.181h3.728z"></path>
</symbol>
<symbol id="viber" viewBox="0 0 30 32">
<path fill="#7732a9" style="fill: var(--color15, #7732a9)" d="M14.21 0c-2.54 0.037-7.997 0.459-11.045 3.289-2.264 2.293-3.063 5.644-3.146 9.8-0.083 4.155-0.191 11.945 7.232 14.057h0.004l-0.005 3.221c0 0-0.049 1.303 0.804 1.569 1.024 0.323 1.627-0.667 2.61-1.736 0.536-0.587 1.281-1.445 1.841-2.107 5.075 0.435 8.979-0.555 9.424-0.7 1.023-0.336 6.822-1.088 7.766-8.876 0.975-8.027-0.474-13.107-3.084-15.395-0.785-0.733-3.962-3.067-11.039-3.097 0 0-0.521-0.033-1.367-0.023l0.005-0.004zM14.286 2.257c0.718-0.005 1.16 0.023 1.16 0.023 5.987 0.027 8.853 1.851 9.519 2.461 2.208 1.913 3.335 6.491 2.512 13.196v0.003c-0.796 6.504-5.502 6.912-6.369 7.193-0.369 0.12-3.799 0.983-8.11 0.699 0 0-3.211 3.92-4.214 4.939-0.158 0.16-0.343 0.223-0.464 0.192-0.171-0.044-0.219-0.251-0.217-0.552l0.026-5.357c-6.277-1.76-5.912-8.389-5.839-11.86 0.071-3.472 0.716-6.317 2.631-8.231 2.583-2.364 7.215-2.691 9.372-2.707l-0.007 0.001zM14.787 5.727c-0.102 0.005-0.198 0.050-0.269 0.125s-0.111 0.174-0.111 0.278c-0.001 0.104 0.038 0.203 0.108 0.279s0.165 0.122 0.268 0.128c2.141 0.013 3.883 0.716 5.309 2.123 1.414 1.395 2.135 3.291 2.152 5.779 0.003 0.223 0.184 0.4 0.405 0.4 0.105-0.001 0.206-0.045 0.28-0.121s0.116-0.178 0.116-0.285c-0.018-2.645-0.814-4.795-2.394-6.352-1.569-1.547-3.55-2.337-5.863-2.353zM9.568 6.653c-0.28-0.039-0.565 0.016-0.812 0.156l-0.013 0.003c-0.567 0.329-1.076 0.749-1.511 1.243-0.003 0.005-0.008 0.005-0.011 0.011-0.352 0.431-0.554 0.851-0.606 1.264-0.010 0.062-0.013 0.124-0.009 0.187 0 0.181 0.029 0.36 0.086 0.533l0.017 0.013c0.178 0.64 0.623 1.701 1.588 3.472 0.554 1.024 1.19 2 1.906 2.915 0.356 0.459 0.738 0.897 1.147 1.312l0.174 0.176c0.409 0.411 0.844 0.8 1.297 1.16 0.905 0.724 1.869 1.37 2.881 1.929 1.75 0.977 2.802 1.427 3.432 1.608l0.013 0.019c0.229 0.076 0.472 0.101 0.712 0.073 0.409-0.048 0.826-0.253 1.25-0.613 0.005 0 0.004-0.003 0.011-0.007 0.488-0.44 0.9-0.96 1.226-1.531l0.004-0.013c0.297-0.576 0.198-1.123-0.237-1.493-0.005 0-0.92-0.773-1.367-1.107-0.474-0.34-0.962-0.656-1.467-0.947-0.672-0.38-1.36-0.141-1.645 0.232l-0.589 0.752c-0.303 0.377-0.866 0.328-0.866 0.328-4.112-1.061-5.213-5.273-5.213-5.273s-0.049-0.568 0.327-0.875l0.742-0.597c0.365-0.287 0.601-0.983 0.224-1.664-0.286-0.512-0.599-1.008-0.936-1.487-0.354-0.469-0.719-0.929-1.094-1.38-0.165-0.209-0.401-0.35-0.662-0.396l0.001-0.003zM15.486 7.827c-0.106-0.003-0.209 0.036-0.286 0.11s-0.122 0.175-0.125 0.282c-0.003 0.107 0.036 0.211 0.109 0.289s0.173 0.124 0.279 0.127c1.529 0.113 2.659 0.621 3.486 1.533 0.83 0.917 1.226 2.032 1.194 3.427 0.006 0.102 0.049 0.199 0.122 0.27s0.17 0.112 0.271 0.114c0.102 0.002 0.2-0.034 0.276-0.103s0.124-0.163 0.134-0.265c0.033-1.567-0.44-2.924-1.406-3.992-0.975-1.080-2.342-1.671-4.020-1.795h-0.032l-0.003 0.001zM16.096 10c-0.101 0.002-0.199 0.042-0.272 0.113s-0.117 0.167-0.123 0.27c-0.011 0.223 0.158 0.413 0.38 0.427 0.689 0.037 1.153 0.233 1.467 0.563 0.316 0.327 0.511 0.827 0.548 1.552 0.014 0.101 0.064 0.192 0.141 0.257s0.176 0.098 0.276 0.093c0.1-0.005 0.195-0.048 0.265-0.12s0.111-0.168 0.115-0.27c-0.040-0.859-0.283-1.571-0.765-2.076-0.484-0.504-1.177-0.765-2.003-0.809h-0.024l-0.005 0.001z"></path>
</symbol>
<symbol id="twitter" viewBox="0 0 32 32">
<path d="M18.663 13.856l10.423-11.856h-2.471l-9.048 10.294-7.23-10.294h-8.338l10.932 15.568-10.932 12.432h2.47l9.556-10.872 7.636 10.872h8.338l-11.337-16.144zM15.28 17.704l-9.921-13.884h3.794l17.464 24.444h-3.794l-7.543-10.56z"></path>
</symbol>
<symbol id="telegram" viewBox="0 0 32 32">
<path fill="#2aabee" style="fill: var(--color14, #2aabee)" d="M16 0c-4.242 0-8.315 1.687-11.313 4.686-3.001 3.001-4.687 7.070-4.688 11.314 0 4.242 1.688 8.314 4.688 11.314 2.998 3 7.070 4.686 11.313 4.686s8.315-1.687 11.313-4.686c3-3 4.688-7.072 4.688-11.314s-1.688-8.314-4.688-11.314c-2.997-2.999-7.070-4.686-11.313-4.686z"></path>
<path fill="#fefefe" style="fill: var(--color2, #fefefe)" d="M7.242 15.831c4.665-2.032 7.775-3.372 9.33-4.019 4.445-1.848 5.367-2.169 5.97-2.18 0.133-0.002 0.427 0.031 0.62 0.186 0.16 0.131 0.205 0.309 0.227 0.433 0.020 0.124 0.047 0.408 0.025 0.63-0.24 2.53-1.282 8.67-1.813 11.503-0.223 1.199-0.665 1.601-1.093 1.64-0.93 0.086-1.635-0.614-2.535-1.204-1.407-0.923-2.203-1.498-3.57-2.398-1.58-1.041-0.555-1.613 0.345-2.548 0.235-0.245 4.33-3.969 4.408-4.306 0.010-0.042 0.020-0.2-0.075-0.283-0.093-0.083-0.23-0.055-0.33-0.032-0.142 0.032-2.39 1.519-6.75 4.461-0.637 0.439-1.215 0.652-1.735 0.641-0.57-0.012-1.67-0.323-2.487-0.588-1-0.326-1.798-0.498-1.728-1.051 0.035-0.288 0.433-0.583 1.19-0.884z"></path>
</symbol>
<symbol id="document-4" viewBox="0 0 37 32">
<path fill="#00544d" style="fill: var(--color1, #00544d)" d="M32.16 16c0 8.837-7.163 16-16 16s-16-7.163-16-16c0-8.837 7.163-16 16-16s16 7.163 16 16z"></path>
<path fill="#fefefe" style="fill: var(--color2, #fefefe)" d="M24.495 10.24h-16.67c-0.081 0-0.158 0.033-0.216 0.092s-0.089 0.139-0.089 0.222v10.892c0 0.083 0.032 0.163 0.089 0.222s0.135 0.092 0.216 0.092h16.67c0.081 0 0.158-0.033 0.216-0.092s0.089-0.139 0.089-0.222v-10.892c0-0.083-0.032-0.163-0.089-0.222s-0.135-0.092-0.216-0.092zM24.19 21.132h-16.060v-10.263h16.060v10.263z"></path>
<path fill="#fefefe" style="fill: var(--color2, #fefefe)" d="M9.553 20.084h5.896c0.081 0 0.158-0.033 0.216-0.092s0.089-0.139 0.089-0.222c-0.014-0.875-0.365-1.708-0.975-2.316s-1.429-0.943-2.278-0.93c-0.849-0.013-1.668 0.322-2.278 0.93s-0.96 1.442-0.975 2.316c0 0.083 0.032 0.163 0.089 0.222s0.135 0.092 0.216 0.092zM12.501 17.152c0.634-0.010 1.251 0.219 1.734 0.642s0.8 1.015 0.891 1.662h-5.249c0.091-0.647 0.408-1.238 0.891-1.662s1.099-0.652 1.734-0.642z"></path>
<path fill="#fefefe" style="fill: var(--color2, #fefefe)" d="M12.501 15.895c0.342 0 0.676-0.104 0.96-0.3s0.506-0.474 0.636-0.799c0.131-0.325 0.165-0.683 0.098-1.029s-0.231-0.663-0.473-0.912-0.55-0.419-0.885-0.487c-0.335-0.069-0.683-0.033-0.998 0.101s-0.586 0.363-0.775 0.656c-0.19 0.293-0.291 0.637-0.291 0.989 0.001 0.472 0.183 0.925 0.507 1.258s0.763 0.521 1.221 0.522zM12.501 12.963c0.221 0 0.437 0.068 0.621 0.194s0.327 0.306 0.412 0.517c0.085 0.21 0.107 0.442 0.064 0.666s-0.15 0.429-0.306 0.59c-0.156 0.161-0.356 0.271-0.572 0.315s-0.442 0.022-0.646-0.066c-0.204-0.087-0.379-0.235-0.502-0.424s-0.188-0.412-0.188-0.64c0.001-0.305 0.118-0.598 0.328-0.814s0.494-0.337 0.79-0.338z"></path>
<path fill="#fefefe" style="fill: var(--color2, #fefefe)" d="M16.363 14.22h6.099c0.081 0 0.158-0.033 0.216-0.092s0.089-0.139 0.089-0.222-0.032-0.163-0.089-0.222c-0.057-0.059-0.135-0.092-0.216-0.092h-6.099c-0.081 0-0.158 0.033-0.216 0.092s-0.089 0.139-0.089 0.222 0.032 0.163 0.089 0.222c0.057 0.059 0.135 0.092 0.216 0.092z"></path>
<path fill="#fefefe" style="fill: var(--color2, #fefefe)" d="M16.363 17.152h6.099c0.081 0 0.158-0.033 0.216-0.092s0.089-0.139 0.089-0.222-0.032-0.163-0.089-0.222c-0.057-0.059-0.135-0.092-0.216-0.092h-6.099c-0.081 0-0.158 0.033-0.216 0.092s-0.089 0.139-0.089 0.222 0.032 0.163 0.089 0.222c0.057 0.059 0.135 0.092 0.216 0.092z"></path>
<path fill="#ffe288" style="fill: var(--color3, #ffe288)" d="M32.8 11.52c2.474 0 4.48 2.006 4.48 4.48s-2.006 4.48-4.48 4.48c-2.474 0-4.48-2.006-4.48-4.48s2.006-4.48 4.48-4.48z"></path>
<path fill="#232c26" style="fill: var(--color4, #232c26)" d="M34.453 16.709v0.475h-3.288v-0.341l2.038-3.153h0.472l-0.506 0.912-1.347 2.106h2.631zM33.819 13.69v4.55h-0.578v-4.55h0.578z"></path>
</symbol>
<symbol id="teacher" viewBox="0 0 32 32">
<path fill="#e9a116" style="fill: var(--color1, #e9a116)" d="M6.461 6.074l3.622 1.6c-0.718 1.066-1.093 2.29-1.093 3.576 0 3.513 2.842 6.398 6.37 6.398s6.37-2.854 6.37-6.398c0-1.255-0.375-2.509-1.062-3.544l3.185-1.506v6.085l-0.968 2.070c-0.062 0.157-0.062 0.314 0.031 0.439s0.25 0.22 0.406 0.22h1.842c0.156 0 0.312-0.063 0.375-0.22 0.094-0.126 0.094-0.282 0.031-0.439l-0.843-2.070v-6.492c0-0.251-0.031-0.439-0.468-0.627-0.094-0.031-8.681-3.858-8.681-3.858-0.125-0.063-0.25-0.063-0.375 0l-8.744 3.889c-0.156 0.063-0.281 0.251-0.281 0.439s0.094 0.345 0.281 0.439zM20.763 11.249c0 3.011-2.436 5.457-5.434 5.457s-5.434-2.446-5.434-5.457c0-1.161 0.375-2.258 1.030-3.199l4.247 1.913c0.062 0.031 0.125 0.031 0.187 0.031s0.125 0 0.187-0.031l4.184-1.882c0.687 0.941 1.030 2.039 1.030 3.168zM24.042 14.072l0.219-0.47 0.187 0.47h-0.406zM15.392 2.247l7.588 3.387-7.588 3.387-7.588-3.387 7.588-3.387z"></path>
<path fill="#e9a116" style="fill: var(--color1, #e9a116)" d="M15.517 18.776c-6.089 0-11.055 4.987-11.055 11.103 0 0.251 0.219 0.471 0.468 0.471h21.172c0.25 0 0.468-0.22 0.468-0.471 0-6.116-4.965-11.103-11.055-11.103zM5.43 29.409c0.25-5.395 4.684-9.692 10.118-9.692s9.837 4.328 10.086 9.692h-20.204z"></path>
</symbol>
<symbol id="computer-yellow-1" viewBox="0 0 37 32">
<path fill="#f4d258" style="fill: var(--color11, #f4d258)" d="M32.16 16c0 8.837-7.163 16-16 16s-16-7.163-16-16c0-8.837 7.163-16 16-16s16 7.163 16 16z"></path>
<path fill="#232c26" style="fill: var(--color5, #232c26)" d="M22.418 9.105h-10.585c-0.632 0-1.139 0.47-1.153 1.077v2.348c0 0.152 0.116 0.275 0.26 0.275s0.26-0.123 0.26-0.275v-2.341c0.007-0.295 0.291-0.534 0.633-0.534h10.585c0.35 0 0.634 0.245 0.634 0.546v8.969c0 0.301-0.284 0.546-0.634 0.546h-10.585c-0.349 0-0.633-0.245-0.633-0.546v-1.284c0-0.152-0.116-0.275-0.26-0.275s-0.26 0.123-0.26 0.275v1.284c0 0.604 0.517 1.096 1.153 1.096h4.993v2.37h-3.299c-0.144 0-0.26 0.123-0.26 0.275s0.116 0.275 0.26 0.275h7.089c0.143 0 0.26-0.123 0.26-0.275s-0.116-0.275-0.26-0.275h-3.27v-2.37h5.073c0.636 0 1.154-0.491 1.154-1.096v-8.969c0-0.604-0.518-1.095-1.154-1.095z"></path>
<path fill="#232c26" style="fill: var(--color5, #232c26)" d="M15.394 13.59h5.571c0.143 0 0.26-0.123 0.26-0.275s-0.116-0.275-0.26-0.275h-5.571c-0.144 0-0.26 0.123-0.26 0.275s0.116 0.275 0.26 0.275z"></path>
<path fill="#232c26" style="fill: var(--color5, #232c26)" d="M15.394 15.331h5.571c0.143 0 0.26-0.123 0.26-0.275s-0.116-0.275-0.26-0.275h-5.571c-0.144 0-0.26 0.123-0.26 0.275s0.116 0.275 0.26 0.275z"></path>
<path fill="#232c26" style="fill: var(--color5, #232c26)" d="M15.394 17.168h5.571c0.143 0 0.26-0.123 0.26-0.275s-0.116-0.275-0.26-0.275h-5.571c-0.144 0-0.26 0.123-0.26 0.275s0.116 0.275 0.26 0.275z"></path>
<path fill="#232c26" style="fill: var(--color5, #232c26)" d="M10.886 15.911c0.067 0 0.134-0.027 0.184-0.080l3.755-3.971c0.102-0.107 0.102-0.281 0-0.389s-0.266-0.107-0.367 0l-3.6 3.807-2.236-1.683c-0.117-0.088-0.279-0.059-0.362 0.064s-0.056 0.295 0.061 0.383l2.415 1.818c0.045 0.034 0.098 0.051 0.15 0.051z"></path>
<path fill="#4acc77" style="fill: var(--color6, #4acc77)" d="M32.8 11.52c2.474 0 4.48 2.006 4.48 4.48s-2.006 4.48-4.48 4.48c-2.474 0-4.48-2.006-4.48-4.48s2.006-4.48 4.48-4.48z"></path>
<path fill="#fefefe" style="fill: var(--color3, #fefefe)" d="M33.278 13.665v4.575h-0.578v-3.853l-1.166 0.425v-0.522l1.653-0.625h0.091z"></path>
</symbol>
<symbol id="het" viewBox="0 0 32 32">
<path fill="#e9a116" style="fill: var(--color1, #e9a116)" d="M28.871 10.527l-13.094-8.729c-0.161-0.107-0.37-0.107-0.531 0l-13.094 8.729c-0.133 0.089-0.213 0.238-0.213 0.398s0.080 0.309 0.213 0.398l1.989 1.326v6.987c0 0.163 0.083 0.315 0.22 0.403l10.969 7.032c0.079 0.050 0.168 0.076 0.258 0.076 0.094 0 0.188-0.028 0.269-0.083l5.723-3.904v2.723l-2.132 4.264c-0.074 0.148-0.066 0.325 0.021 0.466s0.241 0.227 0.407 0.227h4.365c0.166 0 0.32-0.086 0.407-0.227s0.095-0.317 0.021-0.466l-2.132-4.264v-3.375l3.628-2.475c0.13-0.089 0.209-0.237 0.209-0.395v-6.648l2.498-1.665c0.133-0.089 0.213-0.238 0.213-0.398s-0.080-0.309-0.213-0.398zM20.65 29.881l1.408-2.817 1.409 2.817h-2.817zM15.58 26.095l-10.482-6.72v-6.088l10.149 6.766c0.080 0.054 0.173 0.080 0.265 0.080s0.185-0.027 0.265-0.080l5.804-3.869v5.818l-6.001 4.094zM25.417 19.383l-2.88 1.965v-5.803l2.88-1.92v5.758zM25.729 12.268c-0.070 0.026-0.133 0.068-0.183 0.122l-3.487 2.325-6.282-4.188c-0.22-0.147-0.517-0.087-0.663 0.133s-0.087 0.517 0.133 0.663l5.95 3.967-5.685 3.79-12.232-8.155 12.232-8.155 12.232 8.155-2.015 1.343z"></path>
</symbol>
<symbol id="teachers" viewBox="0 0 32 32">
<path fill="#e9a116" style="fill: var(--color1, #e9a116)" d="M10.18 12.918l2.348 1.031c-0.466 0.688-0.708 1.476-0.708 2.306 0 2.265 1.842 4.126 4.129 4.126s4.129-1.84 4.129-4.126c0-0.809-0.243-1.618-0.688-2.285l2.065-0.971v3.924l-0.628 1.335c-0.040 0.101-0.040 0.202 0.020 0.283s0.162 0.142 0.263 0.142h1.194c0.101 0 0.202-0.040 0.243-0.142 0.061-0.081 0.061-0.182 0.020-0.283l-0.546-1.335v-4.186c0-0.162-0.020-0.283-0.304-0.405-0.061-0.020-5.627-2.488-5.627-2.488-0.081-0.040-0.162-0.040-0.243 0l-5.668 2.508c-0.101 0.040-0.182 0.162-0.182 0.283s0.061 0.222 0.182 0.283zM19.45 16.255c0 1.942-1.579 3.519-3.522 3.519s-3.522-1.578-3.522-3.519c0-0.748 0.243-1.456 0.668-2.063l2.753 1.234c0.040 0.020 0.081 0.020 0.121 0.020s0.081 0 0.121-0.020l2.712-1.213c0.445 0.607 0.668 1.315 0.668 2.043zM21.575 18.075l0.142-0.303 0.121 0.303h-0.263zM15.969 10.45l4.919 2.184-4.919 2.184-4.919-2.184 4.919-2.184z"></path>
<path fill="#e9a116" style="fill: var(--color1, #e9a116)" d="M16.049 21.109c-3.947 0-7.165 3.216-7.165 7.16 0 0.162 0.142 0.303 0.304 0.303h13.723c0.162 0 0.304-0.142 0.304-0.303 0-3.944-3.218-7.16-7.165-7.16zM9.512 27.965c0.162-3.479 3.036-6.249 6.558-6.249s6.376 2.791 6.538 6.249h-13.096z"></path>
<path fill="#e9a116" style="fill: var(--color1, #e9a116)" d="M1.313 5.32l1.862 0.818c-0.369 0.545-0.562 1.171-0.562 1.829 0 1.797 1.461 3.273 3.275 3.273s3.275-1.46 3.275-3.273c0-0.642-0.193-1.283-0.546-1.813l1.638-0.77v3.112l-0.498 1.059c-0.032 0.080-0.032 0.16 0.016 0.225s0.128 0.112 0.209 0.112h0.947c0.080 0 0.161-0.032 0.193-0.112 0.048-0.064 0.048-0.144 0.016-0.225l-0.434-1.059v-3.321c0-0.128-0.016-0.225-0.241-0.321-0.048-0.016-4.463-1.973-4.463-1.973-0.064-0.032-0.128-0.032-0.193 0l-4.496 1.989c-0.080 0.032-0.145 0.128-0.145 0.225s0.048 0.176 0.145 0.225zM8.667 7.967c0 1.54-1.252 2.791-2.794 2.791s-2.794-1.251-2.794-2.791c0-0.594 0.193-1.155 0.53-1.636l2.184 0.979c0.032 0.016 0.064 0.016 0.096 0.016s0.064 0 0.096-0.016l2.151-0.963c0.353 0.481 0.53 1.043 0.53 1.62zM10.353 9.411l0.112-0.241 0.096 0.241h-0.209zM5.905 3.362l3.902 1.733-3.902 1.733-3.902-1.733 3.902-1.733z"></path>
<path fill="#e9a116" style="fill: var(--color1, #e9a116)" d="M5.969 11.817c-3.131 0-5.684 2.551-5.684 5.679 0 0.128 0.112 0.241 0.241 0.241h10.886c0.128 0 0.241-0.112 0.241-0.241 0-3.128-2.553-5.679-5.684-5.679zM0.783 17.255c0.128-2.759 2.408-4.957 5.202-4.957s5.058 2.214 5.186 4.957h-10.388z"></path>
<path fill="#e9a116" style="fill: var(--color1, #e9a116)" d="M20.803 5.32l1.862 0.818c-0.369 0.545-0.562 1.171-0.562 1.829 0 1.797 1.461 3.273 3.275 3.273s3.275-1.46 3.275-3.273c0-0.642-0.193-1.283-0.546-1.813l1.638-0.77v3.112l-0.498 1.059c-0.032 0.080-0.032 0.16 0.016 0.225s0.128 0.112 0.209 0.112h0.947c0.080 0 0.161-0.032 0.193-0.112 0.048-0.064 0.048-0.144 0.016-0.225l-0.434-1.059v-3.321c0-0.128-0.016-0.225-0.241-0.321-0.048-0.016-4.463-1.973-4.463-1.973-0.064-0.032-0.128-0.032-0.193 0l-4.496 1.989c-0.080 0.032-0.144 0.128-0.144 0.225s0.048 0.176 0.144 0.225zM28.157 7.967c0 1.54-1.252 2.791-2.794 2.791s-2.794-1.251-2.794-2.791c0-0.594 0.193-1.155 0.53-1.636l2.184 0.979c0.032 0.016 0.064 0.016 0.096 0.016s0.064 0 0.096-0.016l2.151-0.963c0.353 0.481 0.53 1.043 0.53 1.62zM29.842 9.411l0.112-0.241 0.096 0.241h-0.209zM25.395 3.362l3.902 1.733-3.902 1.733-3.902-1.733 3.902-1.733z"></path>
<path fill="#e9a116" style="fill: var(--color1, #e9a116)" d="M25.459 11.817c-3.131 0-5.684 2.551-5.684 5.679 0 0.128 0.112 0.241 0.241 0.241h10.886c0.128 0 0.241-0.112 0.241-0.241 0-3.128-2.553-5.679-5.684-5.679zM20.273 17.255c0.128-2.759 2.408-4.957 5.202-4.957s5.058 2.214 5.186 4.957h-10.388z"></path>
</symbol>
</defs>
</svg>
